<svg id="Layer_1" xmlns="http://www.w3.org/2000/svg" viewBox="0 0 512 512"><style>.st0{display:none}.st1{fill:#fff}.st2{fill:#f657ff}.st3{fill:#fffb6c}.st4{fill:#0ff}.st5{fill:#ff4d39}.st6{fill:#05f}.st7{fill:#65ff40}</style><g id="Layer_3"><path class="st1" d="M108.9 196l149-71 149 71v189.2l-149 67.3-149-67.3z"/><path class="st2" d="M257.9 230.5c23.6 21.8 41.8 52.8 47.2 85.5 29.1-9.1 70.9 1.8 90.9-21.8 14.5-20 9.1-70.9 12.7-96.4-14.5-5.5-47.2-40-63.6-40-39.9-1.9-59.9 47.3-87.2 72.7z"/><path class="st3" d="M323.3 356.1c0-9.1-18.2-30.9-18.2-40-14.5 5.5-30.9 7.3-47.2 7.3s-32.7-1.8-47.2-7.3c-1.8 9.1-27.3 27.3-27.3 36.4 0 43.7 45.4 72.8 74.5 101.9 30.9-29.2 65.4-54.7 65.4-98.3z"/><path class="st4" d="M210.7 316c5.5-34.6 21.8-63.7 47.2-85.5-27.3-25.5-29.1-69.1-69-69.1-16.4 0-65.4 32.7-79.9 36.4 5.5 30.9 9.1 96.4 30.9 118.2 16.3 16.4 49-7.2 70.8 0z"/><path class="st1" d="M257.9 230.5c-23.6 21.8-41.8 52.8-47.2 85.5 14.5 5.5 30.9 7.3 47.2 7.3s32.7-1.8 47.2-7.3c-5.4-34.5-23.5-63.6-47.2-85.5z"/><path class="st5" d="M409.3 197.8c-9.1 56.4-49.1 101.9-103.6 118.3 1.8 9.1 1.8 16.4 1.8 25.5 0 43.7-18.2 83.7-49.1 111 27.3 25.5 63.6 40 103.6 40 83.6 0 150.8-67.3 150.8-151 1.9-65.6-41.7-123.8-103.5-143.8z"/><path class="st6" d="M257.9 230.5c27.3-25.5 63.6-40 103.6-40 16.4 0 32.7 1.8 47.2 7.3 1.8-9.1 1.8-16.4 1.8-25.5-1.8-85.5-69-152.8-152.6-152.8s-150.8 67.3-150.8 151c0 9.1 0 16.4 1.8 25.5 14.5-5.5 30.9-7.3 47.2-7.3 38.2 0 74.6 16.4 101.8 41.8z"/><path class="st7" d="M208.9 341.5c0-9.1 0-16.4 1.8-25.5-52.7-16.3-92.7-63.6-103.6-118.2C47.2 216 3.5 274.2 3.5 341.5c0 83.7 67.2 151 150.8 151 40 0 76.3-14.6 103.6-40-30.9-27.3-49-67.3-49-111z"/></g></svg>