<svg width="48" height="48" viewBox="0 0 48 48" xmlns="http://www.w3.org/2000/svg" xmlns:xlink="http://www.w3.org/1999/xlink"><title>mojaic copy</title><defs><path id="a" d="M0 0h48v48H0z"/><mask id="b" x="0" y="0" width="48" height="48" fill="#fff"><use xlink:href="#a"/></mask></defs><g fill="none" fill-rule="evenodd" opacity=".1"><path fill="#D8D8D8" d="M0 0h6v6H0zM0 12h6v6H0zM0 24h6v6H0zM0 36h6v6H0zM6 6h6v6H6zM6 18h6v6H6zM6 30h6v6H6zM6 42h6v6H6zM12 0h6v6h-6zM12 12h6v6h-6zM12 24h6v6h-6zM12 36h6v6h-6zM18 6h6v6h-6zM18 18h6v6h-6zM18 30h6v6h-6zM18 42h6v6h-6zM24 0h6v6h-6zM24 12h6v6h-6zM24 24h6v6h-6zM24 36h6v6h-6zM30 6h6v6h-6zM30 18h6v6h-6zM30 30h6v6h-6zM30 42h6v6h-6zM36 0h6v6h-6zM36 12h6v6h-6zM36 24h6v6h-6zM36 36h6v6h-6zM42 6h6v6h-6zM42 18h6v6h-6zM42 30h6v6h-6zM42 42h6v6h-6z"/><use stroke="#FFF" mask="url(#b)" stroke-width="2" xlink:href="#a"/></g></svg>